<svg width="24" height="24" viewBox="0 0 24 24" fill="none" xmlns="http://www.w3.org/2000/svg">
<path d="M11.4554 7.32547C11.7402 7.62624 12.2149 7.63919 12.5157 7.35439C12.8164 7.0696 12.8294 6.5949 12.5446 6.29413L11.4554 7.32547ZM11.632 20.6535C11.9929 20.8567 12.4502 20.7289 12.6535 20.368C12.8568 20.0071 12.729 19.5498 12.368 19.3465L11.632 20.6535ZM11.4554 7.32547C11.7402 7.62624 12.2149 7.63919 12.5157 7.35439C12.8164 7.0696 12.8294 6.5949 12.5446 6.29413L11.4554 7.32547ZM11.632 20.6535C11.9929 20.8567 12.4502 20.7289 12.6535 20.368C12.8568 20.0071 12.729 19.5498 12.368 19.3465L11.632 20.6535ZM12.5446 6.29413C10.4144 4.04445 8.22309 3.08291 6.32657 3.27332C4.39162 3.46758 2.98652 4.83917 2.47144 6.74052C1.44816 10.5178 3.83573 16.2625 11.632 20.6535L12.368 19.3465C4.85149 15.1131 3.15591 9.95052 3.91926 7.13273C4.29749 5.73654 5.25314 4.88862 6.47641 4.76581C7.7381 4.63914 9.50245 5.26297 11.4554 7.32547L12.5446 6.29413ZM12.5446 6.29413C10.4144 4.04445 8.22309 3.08291 6.32657 3.27332C4.39162 3.46758 2.98652 4.83917 2.47144 6.74052C1.44816 10.5178 3.83573 16.2625 11.632 20.6535L12.368 19.3465C4.85149 15.1131 3.15591 9.95052 3.91926 7.13273C4.29749 5.73654 5.25314 4.88862 6.47641 4.76581C7.7381 4.63914 9.50245 5.26297 11.4554 7.32547L12.5446 6.29413Z" fill="white"/>
<path d="M12.5167 7.35342C12.2165 7.63878 11.7417 7.62673 11.4564 7.3265C11.171 7.02627 11.1831 6.55155 11.4833 6.26618L12.5167 7.35342ZM12.3391 20.6689C11.9696 20.8562 11.5183 20.7085 11.331 20.3391C11.1438 19.9696 11.2914 19.5183 11.6609 19.331L12.3391 20.6689ZM12.5167 7.35342C12.2165 7.63878 11.7417 7.62673 11.4564 7.3265C11.171 7.02627 11.1831 6.55155 11.4833 6.26618L12.5167 7.35342ZM12.3391 20.6689C11.9696 20.8562 11.5183 20.7085 11.331 20.3391C11.1438 19.9696 11.2914 19.5183 11.6609 19.331L12.3391 20.6689ZM11.4833 6.26618C13.8505 4.01618 16.2504 3.08849 18.2881 3.27261C20.355 3.45937 21.9188 4.78579 22.5011 6.72046C23.6562 10.558 20.9502 16.304 12.3391 20.6689L11.6609 19.331C20.064 15.0716 21.8948 9.91039 21.0648 7.1528C20.6545 5.78992 19.5953 4.89683 18.1531 4.76652C16.6816 4.63356 14.6863 5.29123 12.5167 7.35342L11.4833 6.26618ZM11.4833 6.26618C13.8505 4.01618 16.2504 3.08849 18.2881 3.27261C20.355 3.45937 21.9188 4.78579 22.5011 6.72046C23.6562 10.558 20.9502 16.304 12.3391 20.6689L11.6609 19.331C20.064 15.0716 21.8948 9.91039 21.0648 7.1528C20.6545 5.78992 19.5953 4.89683 18.1531 4.76652C16.6816 4.63356 14.6863 5.29123 12.5167 7.35342L11.4833 6.26618Z" fill="white"/>
</svg>
