<svg width="20" height="20" viewBox="0 0 20 20" fill="none" xmlns="http://www.w3.org/2000/svg">
<g opacity="0.6">
<path fill-rule="evenodd" clip-rule="evenodd" d="M0.833336 3.1288C0.833336 2.74104 0.987373 2.36916 1.26156 2.09497C1.53575 1.82079 1.90762 1.66675 2.29538 1.66675H16.8697C17.0619 1.66644 17.2522 1.70403 17.4298 1.77737C17.6074 1.85072 17.7688 1.95837 17.9048 2.09418C18.0407 2.22998 18.1486 2.39127 18.2221 2.5688C18.2956 2.74634 18.3334 2.93663 18.3333 3.1288V17.7031C18.3335 17.8953 18.2959 18.0857 18.2224 18.2633C18.149 18.4409 18.0413 18.6023 17.9054 18.7382C17.7695 18.8742 17.6082 18.982 17.4306 19.0555C17.253 19.1291 17.0627 19.1669 16.8705 19.1667H2.29538C2.10332 19.1667 1.91313 19.1289 1.7357 19.0554C1.55826 18.9819 1.39705 18.8741 1.26128 18.7382C1.1255 18.6024 1.01783 18.4411 0.944399 18.2637C0.870971 18.0862 0.833232 17.896 0.833336 17.7039V3.1288ZM7.76015 8.33902H10.1298V9.52902C10.4719 8.84493 11.3469 8.22925 12.6617 8.22925C15.1825 8.22925 15.7799 9.59186 15.7799 12.092V16.7231H13.2289V12.6615C13.2289 11.2377 12.8869 10.4343 12.0182 10.4343C10.8131 10.4343 10.312 11.3005 10.312 12.6615V16.7231H7.76015V8.33902ZM3.38515 16.6141H5.93697V8.22925H3.38515V16.6133V16.6141ZM6.30209 5.49448C6.3069 5.71297 6.26802 5.93022 6.18773 6.13348C6.10744 6.33674 5.98737 6.52191 5.83454 6.67814C5.68172 6.83436 5.49923 6.95849 5.29779 7.04323C5.09635 7.12797 4.88 7.17163 4.66146 7.17163C4.44292 7.17163 4.22658 7.12797 4.02513 7.04323C3.82369 6.95849 3.6412 6.83436 3.48838 6.67814C3.33556 6.52191 3.21548 6.33674 3.13519 6.13348C3.0549 5.93022 3.01602 5.71297 3.02084 5.49448C3.03028 5.06561 3.20728 4.65749 3.51393 4.35752C3.82057 4.05755 4.23249 3.88958 4.66146 3.88958C5.09043 3.88958 5.50235 4.05755 5.809 4.35752C6.11564 4.65749 6.29264 5.06561 6.30209 5.49448V5.49448Z" fill="black"/>
</g>
</svg>
