<svg width="20" height="20" viewBox="0 0 20 20" fill="none" xmlns="http://www.w3.org/2000/svg">
<g opacity="0.6">
<path fill-rule="evenodd" clip-rule="evenodd" d="M18.75 10.1056C18.75 5.24437 14.832 1.30273 10 1.30273C5.16797 1.30273 1.25 5.24437 1.25 10.1056C1.25 14.4992 4.44922 18.1409 8.63281 18.8019V12.651H6.41055V10.1056H8.63281V8.16621C8.63281 5.96039 9.93945 4.74096 11.9379 4.74096C12.8953 4.74096 13.8969 4.91308 13.8969 4.91308V7.07961H12.793C11.7066 7.07961 11.3668 7.7579 11.3668 8.45506V10.1056H13.7934L13.4059 12.651H11.3672V18.8027C15.5508 18.1421 18.75 14.5003 18.75 10.1056V10.1056Z" fill="black"/>
</g>
</svg>
