<svg width="64" height="90" viewBox="0 0 64 90" fill="none" xmlns="http://www.w3.org/2000/svg">
<path d="M5.62755 87.0329C6.39996 87.0329 6.84134 86.5934 6.84134 86.0439C6.84134 85.3846 6.28962 85.0549 5.62755 85.0549H4.41376V87.1428L5.62755 87.0329ZM3.42065 84.0659H5.62755C7.06203 84.0659 7.83445 84.8351 7.83445 85.934C7.83445 87.2527 6.84134 87.9121 5.51721 87.9121H4.41376V89.7802H3.42065V84.0659Z" fill="#203A74"/>
<path d="M13.3517 87.4725L12.3586 85.1648L11.3655 87.4725H13.3517ZM11.9172 84.0659H12.9103L15.4482 89.8901H14.4551L13.7931 88.4615H11.0344L10.4827 89.8901H9.37927L11.9172 84.0659Z" fill="#203A74"/>
<path d="M20.3034 86.9231C20.9655 86.9231 21.5172 86.5934 21.5172 85.934C21.5172 85.3846 21.0758 84.945 20.3034 84.945H18.869V86.9231H20.3034ZM17.8758 84.0659H20.4138C21.0758 84.0659 21.7379 84.2857 22.069 84.6154C22.4 84.945 22.6207 85.3846 22.6207 85.8242C22.6207 86.8132 22.069 87.3626 21.1862 87.5824L22.731 89.7802H21.5172L20.0827 87.8022H18.7586V89.7802H17.7655L17.8758 84.0659Z" fill="#203A74"/>
<path d="M29.0206 87.4725L28.0275 85.1648L27.0344 87.4725H29.0206ZM27.4758 83.9561H28.4689L31.0068 89.7802H30.0137L29.462 88.3517H26.7034L26.1517 89.7802H25.1586L27.4758 83.9561Z" fill="#203A74"/>
<path d="M32.8828 86.9231C32.8828 85.2747 34.0966 83.9561 35.8621 83.9561C36.8552 83.9561 37.5173 84.1758 38.069 84.7253L37.5173 85.4945C37.0759 85.1648 36.6345 84.9451 35.8621 84.9451C34.869 84.9451 33.9863 85.9341 33.9863 87.033C33.9863 88.2418 34.7587 89.1209 35.9725 89.1209C36.5242 89.1209 36.9656 88.9011 37.407 88.6813V87.5824H35.8621V86.7033H38.4001V89.1209C37.8483 89.6703 36.9656 90 35.9725 90C34.0966 89.8901 32.8828 88.5714 32.8828 86.9231Z" fill="#203A74"/>
<path d="M40.938 87.3626V84.0659H41.9311V87.3626C41.9311 88.3516 42.4828 89.011 43.3656 89.011C44.2483 89.011 44.8001 88.4615 44.8001 87.3626V84.0659H45.7932V87.3626C45.7932 89.1209 44.8001 89.8901 43.2552 89.8901C42.0414 89.8901 40.938 89.011 40.938 87.3626Z" fill="#203A74"/>
<path d="M51.9724 87.4725L50.9793 85.1648L49.9862 87.4725H51.9724ZM50.5379 83.9561H51.531L54.069 89.7802H53.0759L52.4138 88.4615H49.6552L49.1034 89.7802H48L50.5379 83.9561Z" fill="#203A74"/>
<path d="M57.4896 87.4725L55.1724 84.0659H56.3862L57.931 86.5934L59.5862 84.0659H60.6896L58.3724 87.4725V89.7802H57.4896V87.4725Z" fill="#203A74"/>
<path d="M6.39997 74.7253C6.39997 74.2857 6.06893 74.0659 5.51721 74.0659H4.5241V75.4945H5.51721C6.06893 75.4945 6.39997 75.1648 6.39997 74.7253ZM6.39997 77.9121L5.29652 76.2637H4.41376V77.8022H3.42065V73.0769H5.62755C6.731 73.0769 7.39307 73.6264 7.39307 74.6154C7.39307 75.3846 6.95169 75.8242 6.39997 76.044L7.50341 77.8022L6.39997 77.9121Z" fill="#203A74"/>
<path d="M9.26892 77.9121V73.1868H12.8V74.0659H10.3724V75.0549H12.5793V75.9341H10.3724V77.033H12.9103V77.9121H9.26892Z" fill="#203A74"/>
<path d="M16.8828 74.2857L16.3311 75.8242H17.6552L16.8828 74.2857ZM18.3173 77.9121L17.8759 76.9231H16L15.5586 77.9121H14.4552L16.4414 73.1868H17.4345L19.4207 77.9121H18.3173Z" fill="#203A74"/>
<path d="M21.0758 77.9121V73.1868H22.1793V76.9231H24.4965V77.9121H21.0758Z" fill="#203A74"/>
<path d="M29.2413 77.9121V73.1868H32.7724V74.0659H30.2344V75.0549H32.5517V75.9341H30.2344V77.033H32.8827V77.9121H29.2413Z" fill="#203A74"/>
<path d="M36.4138 77.9121C35.7517 77.9121 34.9793 77.6923 34.4276 77.1429L34.9793 76.3736C35.4207 76.7033 35.8621 76.9231 36.4138 76.9231C36.8552 76.9231 37.0759 76.7033 37.0759 76.4835C37.0759 76.2637 36.8552 76.044 36.0828 75.9341C35.0897 75.7143 34.538 75.3846 34.538 74.5055C34.538 73.6264 35.2 73.0769 36.1931 73.0769C36.8552 73.0769 37.5173 73.2967 37.9586 73.6264L37.4069 74.3956C36.9655 74.1758 36.5242 73.9561 36.1931 73.9561C35.7517 73.9561 35.6414 74.1758 35.6414 74.3956C35.6414 74.7253 35.8621 74.8352 36.6345 74.9451C37.6276 75.1648 38.069 75.4945 38.069 76.3736C38.1793 77.4725 37.4069 77.9121 36.4138 77.9121Z" fill="#203A74"/>
<path d="M42.0414 74.0659V77.9121H41.0483V74.0659H39.7241V73.1868H43.5862V74.0659H42.0414Z" fill="#203A74"/>
<path d="M47.4483 74.2857L46.8966 75.9341H48.0001L47.4483 74.2857ZM48.7725 77.9121L48.3311 76.9231H46.3449L45.9035 77.9121H44.9104L46.8966 73.1868H47.8897L49.8759 77.9121H48.7725Z" fill="#203A74"/>
<path d="M53.7379 74.0659V77.9121H52.7448V74.0659H51.3103V73.1868H55.1724V74.0659H53.7379Z" fill="#203A74"/>
<path d="M56.938 77.9121V73.1868H60.5794V74.0659H57.9311V75.0549H60.2483V75.9341H57.9311V77.033H60.5794V77.9121H56.938Z" fill="#203A74"/>
<path d="M3.42065 62.1978V42.7473H18.0965V46.5934H7.61376V50.5494H16.8827V54.2857H7.61376V58.4615H18.3172V62.1978H3.42065Z" fill="#203A74"/>
<path d="M33.6552 49.4505C33.6552 51.0989 32.4414 52.1978 30.3448 52.1978H26.0414V46.5934H30.2345C32.331 46.7033 33.6552 47.5824 33.6552 49.4505ZM37.0758 60.1099L35.4207 57.6923L33.7655 55.2747C36.3034 54.2857 37.9586 52.4176 37.9586 49.2308V49.1209C37.9586 45.1648 35.2 42.7473 30.6758 42.7473H21.7379V60.3297C21.7379 61.6484 22.731 62.0879 24.0552 62.0879H25.931V61.0989V58.3516V55.8242H29.2414L32.6621 60.989L32.7724 61.0989C33.2138 61.6484 33.8758 62.0879 34.6483 62.0879H38.4L37.0758 60.1099Z" fill="#203A74"/>
<path d="M47.669 54.0659L50.2069 47.8022L52.7448 54.0659H47.669ZM52.3035 42.7473H48.4414L42.0414 57.5824L40.6069 60.8791L40.0552 62.3077H42.8138C43.8069 62.3077 44.5793 61.7582 45.0207 60.8791L46.2345 58.022H54.4L56.1655 62.3077H60.6897L52.3035 42.7473Z" fill="#203A74"/>
<path d="M60.5793 65.7143H3.42065V69.5604H60.5793V65.7143Z" fill="#E81D2D"/>
<path d="M0 40.989L32 26.5934V0L0 22.967V40.989Z" fill="#E81D2D"/>
<path d="M64 40.989L32 26.5934V0L64 22.967V40.989Z" fill="#B41E39"/>
<path d="M58.3724 44.1758C58.593 44.1758 58.593 44.0659 58.593 43.956C58.593 43.8462 58.4827 43.7363 58.3724 43.7363H58.1517V44.0659L58.3724 44.1758ZM57.8206 43.5165H58.3724C58.593 43.5165 58.7034 43.6264 58.9241 43.7363C59.0344 43.8462 59.0344 43.956 59.0344 44.0659C59.0344 44.2857 58.9241 44.3956 58.8137 44.5055L59.1448 45.0549H58.7034L58.3724 44.3956H58.1517V44.8352H57.7103L57.8206 43.5165ZM59.4758 44.1758C59.4758 43.5165 58.9241 42.967 58.262 42.967C57.5999 42.967 57.0482 43.5165 57.0482 44.1758C57.0482 44.8352 57.5999 45.3846 58.262 45.3846C59.0344 45.3846 59.4758 44.8352 59.4758 44.1758ZM57.0482 44.1758C57.0482 43.5165 57.5999 42.7473 58.4827 42.7473C59.3655 42.7473 59.8068 43.2967 59.8068 44.0659C59.8068 44.7253 59.2551 45.4945 58.3724 45.4945C57.5999 45.4945 57.0482 44.9451 57.0482 44.1758Z" fill="#203A74"/>
</svg>
