<svg width="20" height="20" viewBox="0 0 20 20" fill="none" xmlns="http://www.w3.org/2000/svg">
<g opacity="0.6">
<path d="M13.6457 2.7082C14.6118 2.71109 15.5375 3.09616 16.2207 3.77931C16.9038 4.46246 17.2889 5.38818 17.2918 6.3543V13.6457C17.2889 14.6118 16.9038 15.5375 16.2207 16.2207C15.5375 16.9038 14.6118 17.2889 13.6457 17.2918H6.3543C5.38818 17.2889 4.46246 16.9038 3.77931 16.2207C3.09616 15.5375 2.71109 14.6118 2.7082 13.6457V6.3543C2.71109 5.38818 3.09616 4.46246 3.77931 3.77931C4.46246 3.09616 5.38818 2.71109 6.3543 2.7082H13.6457V2.7082ZM13.6457 1.25H6.3543C3.54687 1.25 1.25 3.54687 1.25 6.3543V13.6457C1.25 16.4531 3.54687 18.75 6.3543 18.75H13.6457C16.4531 18.75 18.75 16.4531 18.75 13.6457V6.3543C18.75 3.54687 16.4531 1.25 13.6457 1.25V1.25Z" fill="black"/>
<path d="M14.7395 6.35425C14.5231 6.35425 14.3117 6.2901 14.1318 6.16992C13.9519 6.04974 13.8117 5.87892 13.729 5.67906C13.6462 5.4792 13.6245 5.25929 13.6667 5.04712C13.7089 4.83495 13.8131 4.64006 13.9661 4.4871C14.119 4.33414 14.3139 4.22997 14.5261 4.18776C14.7382 4.14556 14.9582 4.16722 15.158 4.25001C15.3579 4.33279 15.5287 4.47298 15.6489 4.65284C15.7691 4.83271 15.8332 5.04418 15.8332 5.2605C15.8335 5.40422 15.8054 5.54658 15.7506 5.67942C15.6957 5.81226 15.6152 5.93296 15.5135 6.03459C15.4119 6.13621 15.2912 6.21676 15.1584 6.27162C15.0255 6.32648 14.8832 6.35456 14.7395 6.35425V6.35425ZM10 7.08316C10.5769 7.08316 11.1408 7.25422 11.6205 7.57472C12.1002 7.89523 12.474 8.35077 12.6948 8.88374C12.9155 9.41672 12.9733 10.0032 12.8608 10.569C12.7482 11.1348 12.4704 11.6545 12.0625 12.0624C11.6546 12.4704 11.1348 12.7482 10.569 12.8607C10.0032 12.9732 9.41677 12.9155 8.88379 12.6947C8.35082 12.474 7.89528 12.1001 7.57477 11.6204C7.25427 11.1408 7.0832 10.5768 7.0832 9.99995C7.08403 9.22662 7.3916 8.48521 7.93843 7.93838C8.48525 7.39155 9.22667 7.08398 10 7.08316V7.08316ZM10 5.62495C9.13471 5.62495 8.28885 5.88154 7.56938 6.36227C6.84992 6.843 6.28916 7.52629 5.95803 8.32571C5.6269 9.12514 5.54026 10.0048 5.70907 10.8535C5.87788 11.7021 6.29456 12.4817 6.90641 13.0935C7.51826 13.7054 8.29781 14.1221 9.14648 14.2909C9.99515 14.4597 10.8748 14.3731 11.6742 14.0419C12.4737 13.7108 13.157 13.15 13.6377 12.4306C14.1184 11.7111 14.375 10.8652 14.375 9.99995C14.375 8.83963 13.9141 7.72683 13.0936 6.90636C12.2731 6.08589 11.1603 5.62495 10 5.62495V5.62495Z" fill="black"/>
</g>
</svg>
