<svg width="325" height="457" viewBox="0 0 325 457" fill="none" xmlns="http://www.w3.org/2000/svg">
<g filter="url(#filter0_d_540_587)">
<rect x="20" y="16" width="285" height="417" fill="white"/>
<path d="M44.428 282.06C43.876 282.06 43.352 281.948 42.856 281.724C42.368 281.5 41.936 281.192 41.56 280.8C41.192 280.4 40.904 279.936 40.696 279.408C40.488 278.88 40.384 278.308 40.384 277.692C40.384 277.108 40.488 276.56 40.696 276.048C40.904 275.528 41.196 275.072 41.572 274.68C41.948 274.288 42.388 273.98 42.892 273.756C43.396 273.532 43.944 273.42 44.536 273.42C45.336 273.42 46.02 273.592 46.588 273.936C47.164 274.272 47.596 274.72 47.884 275.28L46.648 276.192C46.432 275.768 46.128 275.444 45.736 275.22C45.352 274.996 44.932 274.884 44.476 274.884C44.116 274.884 43.788 274.96 43.492 275.112C43.196 275.264 42.94 275.472 42.724 275.736C42.508 276 42.34 276.304 42.22 276.648C42.108 276.992 42.052 277.356 42.052 277.74C42.052 278.148 42.112 278.524 42.232 278.868C42.36 279.212 42.536 279.512 42.76 279.768C42.992 280.024 43.26 280.228 43.564 280.38C43.868 280.524 44.204 280.596 44.572 280.596C45.004 280.596 45.416 280.484 45.808 280.26C46.208 280.036 46.58 279.708 46.924 279.276V280.908C46.212 281.676 45.38 282.06 44.428 282.06ZM46.804 278.832H45.088V277.62H48.172V282H46.804V278.832ZM50.1833 282V273.48H51.8393V282H50.1833ZM61.1649 282V276.408L58.9809 280.572H58.0569L55.8729 276.408V282H54.2169V273.48H55.9929L58.5129 278.328L61.0569 273.48H62.8209V282H61.1649ZM66.8557 276.528V282H65.1997V273.48H66.5197L70.9237 279.096V273.492H72.5797V282H71.1997L66.8557 276.528ZM77.2681 273.48H78.9481L82.0801 282H80.3761L79.5841 279.876H76.6081L75.8281 282H74.1241L77.2681 273.48ZM79.2841 278.712L78.1081 275.196L76.8841 278.712H79.2841ZM88.5851 275.712C88.5291 275.656 88.4251 275.58 88.2731 275.484C88.1291 275.388 87.9491 275.296 87.7331 275.208C87.5251 275.12 87.2971 275.044 87.0491 274.98C86.8011 274.908 86.5491 274.872 86.2931 274.872C85.8451 274.872 85.5051 274.956 85.2731 275.124C85.0491 275.292 84.9371 275.528 84.9371 275.832C84.9371 276.064 85.0091 276.248 85.1531 276.384C85.2971 276.52 85.5131 276.636 85.8011 276.732C86.0891 276.828 86.4491 276.932 86.8811 277.044C87.4411 277.18 87.9251 277.348 88.3331 277.548C88.7491 277.74 89.0651 277.996 89.2811 278.316C89.5051 278.628 89.6171 279.044 89.6171 279.564C89.6171 280.02 89.5331 280.412 89.3651 280.74C89.1971 281.06 88.9651 281.32 88.6691 281.52C88.3731 281.72 88.0371 281.868 87.6611 281.964C87.2851 282.052 86.8851 282.096 86.4611 282.096C86.0371 282.096 85.6131 282.052 85.1891 281.964C84.7651 281.876 84.3571 281.752 83.9651 281.592C83.5731 281.424 83.2131 281.224 82.8851 280.992L83.6171 279.564C83.6891 279.636 83.8171 279.732 84.0011 279.852C84.1851 279.964 84.4091 280.08 84.6731 280.2C84.9371 280.312 85.2251 280.408 85.5371 280.488C85.8491 280.568 86.1651 280.608 86.4851 280.608C86.9331 280.608 87.2731 280.532 87.5051 280.38C87.7371 280.228 87.8531 280.012 87.8531 279.732C87.8531 279.476 87.7611 279.276 87.5771 279.132C87.3931 278.988 87.1371 278.864 86.8091 278.76C86.4811 278.648 86.0931 278.528 85.6451 278.4C85.1091 278.248 84.6611 278.08 84.3011 277.896C83.9411 277.704 83.6731 277.464 83.4971 277.176C83.3211 276.888 83.2331 276.528 83.2331 276.096C83.2331 275.512 83.3691 275.024 83.6411 274.632C83.9211 274.232 84.2971 273.932 84.7691 273.732C85.2411 273.524 85.7651 273.42 86.3411 273.42C86.7411 273.42 87.1171 273.464 87.4691 273.552C87.8291 273.64 88.1651 273.756 88.4771 273.9C88.7891 274.044 89.0691 274.2 89.3171 274.368L88.5851 275.712ZM91.4685 282V273.48H93.1245V282H91.4685ZM99.1381 282.06C98.5141 282.06 97.9461 281.94 97.4341 281.7C96.9301 281.46 96.4941 281.136 96.1261 280.728C95.7661 280.312 95.4861 279.848 95.2861 279.336C95.0861 278.816 94.9861 278.284 94.9861 277.74C94.9861 277.172 95.0901 276.632 95.2981 276.12C95.5141 275.6 95.8061 275.14 96.1741 274.74C96.5501 274.332 96.9901 274.012 97.4941 273.78C98.0061 273.54 98.5661 273.42 99.1741 273.42C99.7901 273.42 100.35 273.544 100.854 273.792C101.366 274.04 101.802 274.372 102.162 274.788C102.522 275.204 102.802 275.668 103.002 276.18C103.202 276.692 103.302 277.22 103.302 277.764C103.302 278.324 103.198 278.864 102.99 279.384C102.782 279.896 102.49 280.356 102.114 280.764C101.746 281.164 101.306 281.48 100.794 281.712C100.29 281.944 99.7381 282.06 99.1381 282.06ZM96.6661 277.74C96.6661 278.108 96.7221 278.464 96.8341 278.808C96.9461 279.152 97.1061 279.46 97.3141 279.732C97.5301 279.996 97.7901 280.208 98.0941 280.368C98.4061 280.52 98.7581 280.596 99.1501 280.596C99.5501 280.596 99.9061 280.516 100.218 280.356C100.53 280.188 100.79 279.968 100.998 279.696C101.206 279.416 101.362 279.108 101.466 278.772C101.578 278.428 101.634 278.084 101.634 277.74C101.634 277.372 101.574 277.02 101.454 276.684C101.342 276.34 101.178 276.036 100.962 275.772C100.754 275.5 100.494 275.288 100.182 275.136C99.8781 274.976 99.5341 274.896 99.1501 274.896C98.7421 274.896 98.3821 274.98 98.0701 275.148C97.7661 275.308 97.5101 275.524 97.3021 275.796C97.0941 276.068 96.9341 276.372 96.8221 276.708C96.7181 277.044 96.6661 277.388 96.6661 277.74Z" fill="#E9933E"/>
<path d="M46.66 307.09C45.82 307.09 45.034 306.91 44.302 306.55C43.582 306.178 42.952 305.686 42.412 305.074C41.872 304.45 41.452 303.754 41.152 302.986C40.852 302.206 40.702 301.402 40.702 300.574C40.702 299.71 40.852 298.894 41.152 298.126C41.452 297.346 41.866 296.656 42.394 296.056C42.934 295.456 43.564 294.988 44.284 294.652C45.016 294.304 45.808 294.13 46.66 294.13C47.896 294.13 48.916 294.388 49.72 294.904C50.524 295.42 51.13 296.092 51.538 296.92L50.296 297.784C49.924 297.04 49.414 296.488 48.766 296.128C48.118 295.768 47.404 295.588 46.624 295.588C45.976 295.588 45.388 295.726 44.86 296.002C44.332 296.278 43.876 296.656 43.492 297.136C43.12 297.604 42.832 298.138 42.628 298.738C42.436 299.338 42.34 299.962 42.34 300.61C42.34 301.294 42.448 301.942 42.664 302.554C42.892 303.154 43.21 303.688 43.618 304.156C44.026 304.612 44.5 304.972 45.04 305.236C45.58 305.5 46.162 305.632 46.786 305.632C47.518 305.632 48.214 305.446 48.874 305.074C49.534 304.702 50.158 304.132 50.746 303.364V305.038C49.594 306.406 48.232 307.09 46.66 307.09ZM50.548 301.852H47.794V300.628H51.916V307H50.548V301.852ZM58.2316 307.18C57.5236 307.18 56.8816 307.054 56.3056 306.802C55.7296 306.538 55.2316 306.184 54.8116 305.74C54.3916 305.284 54.0676 304.762 53.8396 304.174C53.6116 303.586 53.4976 302.968 53.4976 302.32C53.4976 301.66 53.6116 301.036 53.8396 300.448C54.0676 299.86 54.3916 299.344 54.8116 298.9C55.2316 298.444 55.7296 298.09 56.3056 297.838C56.8936 297.574 57.5356 297.442 58.2316 297.442C58.9396 297.442 59.5816 297.574 60.1576 297.838C60.7336 298.09 61.2316 298.444 61.6516 298.9C62.0836 299.344 62.4136 299.86 62.6416 300.448C62.8696 301.036 62.9836 301.66 62.9836 302.32C62.9836 302.968 62.8696 303.586 62.6416 304.174C62.4136 304.762 62.0896 305.284 61.6696 305.74C61.2496 306.184 60.7456 306.538 60.1576 306.802C59.5816 307.054 58.9396 307.18 58.2316 307.18ZM55.1176 302.338C55.1176 302.986 55.2556 303.574 55.5316 304.102C55.8196 304.63 56.1976 305.05 56.6656 305.362C57.1336 305.662 57.6556 305.812 58.2316 305.812C58.8076 305.812 59.3296 305.656 59.7976 305.344C60.2776 305.032 60.6556 304.612 60.9316 304.084C61.2196 303.544 61.3636 302.95 61.3636 302.302C61.3636 301.654 61.2196 301.066 60.9316 300.538C60.6556 300.01 60.2776 299.59 59.7976 299.278C59.3296 298.966 58.8076 298.81 58.2316 298.81C57.6556 298.81 57.1336 298.972 56.6656 299.296C56.1976 299.608 55.8196 300.028 55.5316 300.556C55.2556 301.084 55.1176 301.678 55.1176 302.338ZM64.939 293.86H66.523V304.57C66.523 305.086 66.595 305.404 66.739 305.524C66.883 305.644 67.057 305.704 67.261 305.704C67.513 305.704 67.753 305.68 67.981 305.632C68.209 305.572 68.401 305.512 68.557 305.452L68.809 306.748C68.545 306.856 68.233 306.946 67.873 307.018C67.513 307.09 67.195 307.126 66.919 307.126C66.307 307.126 65.821 306.952 65.461 306.604C65.113 306.256 64.939 305.77 64.939 305.146V293.86ZM69.4414 302.32C69.4414 301.432 69.6214 300.622 69.9814 299.89C70.3534 299.146 70.8574 298.552 71.4934 298.108C72.1414 297.664 72.8794 297.442 73.7074 297.442C74.4634 297.442 75.1414 297.64 75.7414 298.036C76.3414 298.432 76.8094 298.912 77.1454 299.476V293.86H78.7294V305.2C78.7294 305.392 78.7654 305.536 78.8374 305.632C78.9214 305.716 79.0534 305.764 79.2334 305.776V307C78.9334 307.048 78.6994 307.072 78.5314 307.072C78.2194 307.072 77.9434 306.964 77.7034 306.748C77.4754 306.532 77.3614 306.292 77.3614 306.028V305.236C76.9894 305.836 76.4914 306.31 75.8674 306.658C75.2434 307.006 74.5954 307.18 73.9234 307.18C73.2754 307.18 72.6754 307.054 72.1234 306.802C71.5834 306.538 71.1094 306.178 70.7014 305.722C70.3054 305.266 69.9934 304.75 69.7654 304.174C69.5494 303.586 69.4414 302.968 69.4414 302.32ZM77.1454 303.706V301.006C77.0014 300.598 76.7674 300.232 76.4434 299.908C76.1194 299.572 75.7534 299.308 75.3454 299.116C74.9494 298.912 74.5534 298.81 74.1574 298.81C73.6894 298.81 73.2634 298.912 72.8794 299.116C72.5074 299.308 72.1834 299.572 71.9074 299.908C71.6434 300.232 71.4394 300.604 71.2954 301.024C71.1514 301.444 71.0794 301.882 71.0794 302.338C71.0794 302.806 71.1574 303.25 71.3134 303.67C71.4814 304.09 71.7094 304.462 71.9974 304.786C72.2974 305.11 72.6394 305.362 73.0234 305.542C73.4194 305.722 73.8454 305.812 74.3014 305.812C74.5894 305.812 74.8834 305.758 75.1834 305.65C75.4954 305.542 75.7894 305.392 76.0654 305.2C76.3414 305.008 76.5754 304.786 76.7674 304.534C76.9594 304.27 77.0854 303.994 77.1454 303.706ZM85.5317 307.18C84.8237 307.18 84.1757 307.054 83.5877 306.802C83.0117 306.538 82.5077 306.184 82.0757 305.74C81.6557 305.284 81.3257 304.762 81.0857 304.174C80.8577 303.586 80.7437 302.962 80.7437 302.302C80.7437 301.414 80.9477 300.604 81.3557 299.872C81.7637 299.14 82.3277 298.552 83.0477 298.108C83.7797 297.664 84.6137 297.442 85.5497 297.442C86.4977 297.442 87.3197 297.67 88.0157 298.126C88.7237 298.57 89.2697 299.158 89.6537 299.89C90.0497 300.61 90.2477 301.39 90.2477 302.23C90.2477 302.35 90.2417 302.47 90.2297 302.59C90.2297 302.698 90.2237 302.782 90.2117 302.842H82.4177C82.4657 303.454 82.6337 304 82.9217 304.48C83.2217 304.948 83.6057 305.32 84.0737 305.596C84.5417 305.86 85.0457 305.992 85.5857 305.992C86.1617 305.992 86.7017 305.848 87.2057 305.56C87.7217 305.272 88.0757 304.894 88.2677 304.426L89.6357 304.804C89.4317 305.26 89.1257 305.668 88.7177 306.028C88.3217 306.388 87.8477 306.67 87.2957 306.874C86.7557 307.078 86.1677 307.18 85.5317 307.18ZM82.3637 301.744H88.7717C88.7237 301.132 88.5497 300.592 88.2497 300.124C87.9497 299.656 87.5657 299.29 87.0977 299.026C86.6297 298.762 86.1137 298.63 85.5497 298.63C84.9977 298.63 84.4877 298.762 84.0197 299.026C83.5517 299.29 83.1677 299.656 82.8677 300.124C82.5797 300.592 82.4117 301.132 82.3637 301.744ZM100.162 307H98.5785V301.744C98.5785 300.748 98.4225 300.022 98.1105 299.566C97.8105 299.098 97.3485 298.864 96.7245 298.864C96.2925 298.864 95.8605 298.972 95.4285 299.188C95.0085 299.404 94.6305 299.698 94.2945 300.07C93.9705 300.43 93.7365 300.85 93.5925 301.33V307H92.0085V297.604H93.4485V299.62C93.7005 299.176 94.0245 298.792 94.4205 298.468C94.8165 298.144 95.2665 297.892 95.7705 297.712C96.2745 297.532 96.8025 297.442 97.3545 297.442C97.8945 297.442 98.3445 297.544 98.7045 297.748C99.0765 297.94 99.3645 298.216 99.5685 298.576C99.7845 298.924 99.9345 299.338 100.018 299.818C100.114 300.298 100.162 300.82 100.162 301.384V307ZM112.56 307.09C111.72 307.09 110.934 306.91 110.202 306.55C109.482 306.178 108.852 305.686 108.312 305.074C107.772 304.45 107.352 303.754 107.052 302.986C106.752 302.206 106.602 301.402 106.602 300.574C106.602 299.71 106.752 298.894 107.052 298.126C107.352 297.346 107.766 296.656 108.294 296.056C108.834 295.456 109.464 294.988 110.184 294.652C110.916 294.304 111.708 294.13 112.56 294.13C113.796 294.13 114.816 294.388 115.62 294.904C116.424 295.42 117.03 296.092 117.438 296.92L116.196 297.784C115.824 297.04 115.314 296.488 114.666 296.128C114.018 295.768 113.304 295.588 112.524 295.588C111.876 295.588 111.288 295.726 110.76 296.002C110.232 296.278 109.776 296.656 109.392 297.136C109.02 297.604 108.732 298.138 108.528 298.738C108.336 299.338 108.24 299.962 108.24 300.61C108.24 301.294 108.348 301.942 108.564 302.554C108.792 303.154 109.11 303.688 109.518 304.156C109.926 304.612 110.4 304.972 110.94 305.236C111.48 305.5 112.062 305.632 112.686 305.632C113.418 305.632 114.114 305.446 114.774 305.074C115.434 304.702 116.058 304.132 116.646 303.364V305.038C115.494 306.406 114.132 307.09 112.56 307.09ZM116.448 301.852H113.694V300.628H117.816V307H116.448V301.852ZM120.284 309.556C120.44 309.568 120.596 309.58 120.752 309.592C120.908 309.616 121.028 309.628 121.112 309.628C121.304 309.628 121.472 309.562 121.616 309.43C121.76 309.298 121.916 309.04 122.084 308.656C122.264 308.284 122.492 307.732 122.768 307L118.79 297.604H120.464L123.632 305.398L126.494 297.604H128.06L123.488 309.466C123.38 309.742 123.218 310 123.002 310.24C122.798 310.492 122.534 310.69 122.21 310.834C121.886 310.978 121.496 311.05 121.04 311.05C120.932 311.05 120.818 311.044 120.698 311.032C120.59 311.02 120.452 310.996 120.284 310.96V309.556ZM143.827 307H142.243V301.744C142.243 300.76 142.081 300.034 141.757 299.566C141.445 299.098 140.977 298.864 140.353 298.864C139.717 298.864 139.141 299.098 138.625 299.566C138.109 300.022 137.743 300.616 137.527 301.348V307H135.943V301.744C135.943 300.748 135.787 300.022 135.475 299.566C135.163 299.098 134.695 298.864 134.071 298.864C133.447 298.864 132.871 299.092 132.343 299.548C131.827 299.992 131.461 300.586 131.245 301.33V307H129.661V297.604H131.101V299.62C131.485 298.924 131.983 298.39 132.595 298.018C133.207 297.634 133.897 297.442 134.665 297.442C135.445 297.442 136.069 297.658 136.537 298.09C137.005 298.51 137.293 299.056 137.401 299.728C137.821 298.984 138.331 298.42 138.931 298.036C139.531 297.64 140.215 297.442 140.983 297.442C141.523 297.442 141.973 297.544 142.333 297.748C142.705 297.94 142.999 298.216 143.215 298.576C143.431 298.924 143.587 299.338 143.683 299.818C143.779 300.298 143.827 300.82 143.827 301.384V307Z" fill="black"/>
<path d="M45.364 337.812V339H40.78V337.812H42.484V333.624C42.412 333.72 42.3 333.82 42.148 333.924C41.996 334.028 41.824 334.128 41.632 334.224C41.448 334.312 41.26 334.384 41.068 334.44C40.876 334.496 40.7 334.524 40.54 334.524V333.288C40.7 333.288 40.884 333.24 41.092 333.144C41.3 333.048 41.504 332.936 41.704 332.808C41.912 332.672 42.088 332.544 42.232 332.424C42.376 332.296 42.46 332.204 42.484 332.148H43.84V337.812H45.364ZM52.4044 335.484C52.4044 336.188 52.2684 336.816 51.9964 337.368C51.7324 337.912 51.3684 338.34 50.9044 338.652C50.4484 338.964 49.9244 339.12 49.3324 339.12C48.7484 339.12 48.2244 338.964 47.7604 338.652C47.2964 338.34 46.9284 337.912 46.6564 337.368C46.3924 336.816 46.2604 336.188 46.2604 335.484C46.2604 334.78 46.3924 334.156 46.6564 333.612C46.9284 333.06 47.2964 332.628 47.7604 332.316C48.2244 331.996 48.7484 331.836 49.3324 331.836C49.9244 331.836 50.4484 331.996 50.9044 332.316C51.3684 332.628 51.7324 333.06 51.9964 333.612C52.2684 334.156 52.4044 334.78 52.4044 335.484ZM51.0604 335.484C51.0604 335.004 50.9884 334.584 50.8444 334.224C50.7004 333.856 50.4964 333.572 50.2324 333.372C49.9684 333.164 49.6684 333.06 49.3324 333.06C48.9884 333.06 48.6844 333.164 48.4204 333.372C48.1564 333.572 47.9484 333.856 47.7964 334.224C47.6524 334.584 47.5804 335.004 47.5804 335.484C47.5804 335.964 47.6524 336.384 47.7964 336.744C47.9484 337.104 48.1564 337.388 48.4204 337.596C48.6844 337.796 48.9884 337.896 49.3324 337.896C49.6684 337.896 49.9644 337.796 50.2204 337.596C50.4844 337.388 50.6884 337.104 50.8324 336.744C50.9844 336.384 51.0604 335.964 51.0604 335.484ZM55.3715 333.924C55.0195 333.924 54.6955 333.844 54.3995 333.684C54.1115 333.524 53.8795 333.312 53.7035 333.048C53.5355 332.776 53.4515 332.476 53.4515 332.148C53.4515 331.812 53.5355 331.512 53.7035 331.248C53.8795 330.976 54.1115 330.76 54.3995 330.6C54.6955 330.44 55.0195 330.36 55.3715 330.36C55.7235 330.36 56.0435 330.44 56.3315 330.6C56.6195 330.76 56.8475 330.976 57.0155 331.248C57.1835 331.512 57.2675 331.808 57.2675 332.136C57.2675 332.464 57.1835 332.764 57.0155 333.036C56.8475 333.308 56.6195 333.524 56.3315 333.684C56.0435 333.844 55.7235 333.924 55.3715 333.924ZM55.3595 333.24C55.5435 333.24 55.7075 333.192 55.8515 333.096C56.0035 332.992 56.1195 332.856 56.1995 332.688C56.2875 332.52 56.3315 332.34 56.3315 332.148C56.3315 331.94 56.2875 331.752 56.1995 331.584C56.1115 331.416 55.9915 331.284 55.8395 331.188C55.6955 331.092 55.5395 331.044 55.3715 331.044C55.1875 331.044 55.0195 331.096 54.8675 331.2C54.7235 331.296 54.6075 331.428 54.5195 331.596C54.4315 331.764 54.3875 331.944 54.3875 332.136C54.3875 332.344 54.4315 332.532 54.5195 332.7C54.6155 332.86 54.7355 332.992 54.8795 333.096C55.0315 333.192 55.1915 333.24 55.3595 333.24ZM59.7755 339.12C59.4235 339.12 59.1035 339.04 58.8155 338.88C58.5275 338.72 58.2955 338.504 58.1195 338.232C57.9515 337.96 57.8675 337.66 57.8675 337.332C57.8675 337.004 57.9515 336.708 58.1195 336.444C58.2955 336.172 58.5275 335.956 58.8155 335.796C59.1035 335.636 59.4235 335.556 59.7755 335.556C60.1355 335.556 60.4595 335.636 60.7475 335.796C61.0355 335.948 61.2635 336.16 61.4315 336.432C61.5995 336.704 61.6835 337.004 61.6835 337.332C61.6835 337.66 61.5995 337.96 61.4315 338.232C61.2635 338.504 61.0355 338.72 60.7475 338.88C60.4595 339.04 60.1355 339.12 59.7755 339.12ZM59.7755 338.436C59.9595 338.436 60.1235 338.384 60.2675 338.28C60.4195 338.176 60.5355 338.044 60.6155 337.884C60.7035 337.716 60.7475 337.536 60.7475 337.344C60.7475 337.136 60.7035 336.948 60.6155 336.78C60.5275 336.612 60.4075 336.48 60.2555 336.384C60.1115 336.288 59.9515 336.24 59.7755 336.24C59.5995 336.24 59.4355 336.292 59.2835 336.396C59.1395 336.492 59.0235 336.624 58.9355 336.792C58.8475 336.96 58.8035 337.14 58.8035 337.332C58.8035 337.532 58.8475 337.716 58.9355 337.884C59.0315 338.052 59.1515 338.188 59.2955 338.292C59.4395 338.388 59.5995 338.436 59.7755 338.436ZM53.9915 338.52L57.3635 334.524L60.5315 330.408L61.1555 330.948L57.8435 334.896L54.6035 339.072L53.9915 338.52ZM68.7141 339.12C68.2261 339.12 67.7821 339.036 67.3821 338.868C66.9901 338.692 66.6501 338.456 66.3621 338.16C66.0741 337.856 65.8501 337.512 65.6901 337.128C65.5381 336.736 65.4621 336.32 65.4621 335.88C65.4621 335.288 65.5981 334.748 65.8701 334.26C66.1421 333.764 66.5221 333.368 67.0101 333.072C67.4981 332.768 68.0701 332.616 68.7261 332.616C69.3821 332.616 69.9461 332.768 70.4181 333.072C70.8981 333.368 71.2701 333.76 71.5341 334.248C71.7981 334.736 71.9301 335.26 71.9301 335.82C71.9301 335.916 71.9261 336.008 71.9181 336.096C71.9101 336.176 71.9021 336.244 71.8941 336.3H66.8661C66.8901 336.668 66.9901 336.992 67.1661 337.272C67.3501 337.544 67.5821 337.76 67.8621 337.92C68.1421 338.072 68.4421 338.148 68.7621 338.148C69.1141 338.148 69.4461 338.06 69.7581 337.884C70.0781 337.708 70.2941 337.476 70.4061 337.188L71.5341 337.512C71.3981 337.816 71.1901 338.092 70.9101 338.34C70.6381 338.58 70.3141 338.772 69.9381 338.916C69.5621 339.052 69.1541 339.12 68.7141 339.12ZM66.8301 335.424H70.6221C70.5981 335.064 70.4941 334.748 70.3101 334.476C70.1341 334.196 69.9061 333.98 69.6261 333.828C69.3541 333.668 69.0501 333.588 68.7141 333.588C68.3861 333.588 68.0821 333.668 67.8021 333.828C67.5301 333.98 67.3061 334.196 67.1301 334.476C66.9541 334.748 66.8541 335.064 66.8301 335.424ZM78.6348 339H77.3148V335.484C77.3148 334.9 77.2188 334.472 77.0268 334.2C76.8428 333.928 76.5668 333.792 76.1988 333.792C75.9428 333.792 75.6868 333.856 75.4308 333.984C75.1828 334.112 74.9588 334.288 74.7588 334.512C74.5588 334.728 74.4148 334.98 74.3268 335.268V339H73.0068V332.724H74.2068V333.984C74.3668 333.704 74.5748 333.464 74.8308 333.264C75.0948 333.056 75.3908 332.896 75.7188 332.784C76.0468 332.672 76.3948 332.616 76.7628 332.616C77.1388 332.616 77.4468 332.684 77.6868 332.82C77.9348 332.956 78.1268 333.144 78.2628 333.384C78.4068 333.616 78.5028 333.888 78.5508 334.2C78.6068 334.504 78.6348 334.828 78.6348 335.172V339ZM83.1438 330.24H84.4638V337.188C84.4638 337.508 84.5118 337.712 84.6078 337.8C84.7038 337.888 84.8238 337.932 84.9678 337.932C85.1278 337.932 85.2758 337.916 85.4118 337.884C85.5558 337.852 85.6798 337.812 85.7838 337.764L85.9758 338.808C85.7838 338.888 85.5558 338.956 85.2918 339.012C85.0278 339.068 84.7918 339.096 84.5838 339.096C84.1358 339.096 83.7838 338.972 83.5278 338.724C83.2718 338.468 83.1438 338.116 83.1438 337.668V330.24ZM86.2852 337.164C86.2852 336.764 86.3972 336.416 86.6212 336.12C86.8532 335.816 87.1692 335.584 87.5692 335.424C87.9692 335.256 88.4332 335.172 88.9612 335.172C89.2412 335.172 89.5252 335.192 89.8132 335.232C90.1092 335.272 90.3692 335.336 90.5932 335.424V335.028C90.5932 334.588 90.4612 334.244 90.1972 333.996C89.9332 333.748 89.5532 333.624 89.0572 333.624C88.7052 333.624 88.3732 333.688 88.0612 333.816C87.7492 333.936 87.4172 334.108 87.0652 334.332L86.6212 333.444C87.0372 333.164 87.4532 332.956 87.8692 332.82C88.2932 332.684 88.7372 332.616 89.2012 332.616C90.0412 332.616 90.7012 332.84 91.1812 333.288C91.6692 333.728 91.9132 334.356 91.9132 335.172V337.512C91.9132 337.664 91.9372 337.772 91.9852 337.836C92.0412 337.9 92.1332 337.936 92.2612 337.944V339C92.1412 339.024 92.0332 339.04 91.9372 339.048C91.8412 339.056 91.7612 339.06 91.6972 339.06C91.4172 339.06 91.2052 338.992 91.0612 338.856C90.9172 338.72 90.8332 338.56 90.8092 338.376L90.7732 338.016C90.5012 338.368 90.1532 338.64 89.7292 338.832C89.3052 339.024 88.8772 339.12 88.4452 339.12C88.0292 339.12 87.6572 339.036 87.3292 338.868C87.0012 338.692 86.7452 338.456 86.5612 338.16C86.3772 337.864 86.2852 337.532 86.2852 337.164ZM90.2812 337.548C90.3772 337.444 90.4532 337.34 90.5092 337.236C90.5652 337.132 90.5932 337.04 90.5932 336.96V336.24C90.3692 336.152 90.1332 336.088 89.8852 336.048C89.6372 336 89.3932 335.976 89.1532 335.976C88.6732 335.976 88.2812 336.072 87.9772 336.264C87.6812 336.456 87.5332 336.72 87.5332 337.056C87.5332 337.24 87.5812 337.416 87.6772 337.584C87.7812 337.752 87.9252 337.888 88.1092 337.992C88.3012 338.096 88.5372 338.148 88.8172 338.148C89.1052 338.148 89.3812 338.092 89.6452 337.98C89.9092 337.868 90.1212 337.724 90.2812 337.548ZM99.3235 339.12C98.8355 339.12 98.3915 339.036 97.9915 338.868C97.5995 338.692 97.2595 338.452 96.9715 338.148C96.6835 337.844 96.4595 337.496 96.2995 337.104C96.1475 336.712 96.0715 336.296 96.0715 335.856C96.0715 335.264 96.2035 334.724 96.4675 334.236C96.7395 333.748 97.1155 333.356 97.5955 333.06C98.0835 332.764 98.6595 332.616 99.3235 332.616C99.9635 332.616 100.52 332.76 100.992 333.048C101.472 333.328 101.824 333.704 102.048 334.176L100.764 334.584C100.62 334.32 100.416 334.116 100.152 333.972C99.8955 333.82 99.6115 333.744 99.2995 333.744C98.9475 333.744 98.6275 333.836 98.3395 334.02C98.0595 334.196 97.8355 334.444 97.6675 334.764C97.5075 335.076 97.4275 335.44 97.4275 335.856C97.4275 336.256 97.5115 336.62 97.6795 336.948C97.8475 337.268 98.0715 337.524 98.3515 337.716C98.6395 337.9 98.9595 337.992 99.3115 337.992C99.5275 337.992 99.7355 337.956 99.9355 337.884C100.144 337.804 100.324 337.7 100.476 337.572C100.628 337.436 100.736 337.288 100.8 337.128L102.096 337.512C101.96 337.824 101.756 338.1 101.484 338.34C101.22 338.58 100.904 338.772 100.536 338.916C100.176 339.052 99.7715 339.12 99.3235 339.12ZM103.123 336.564V332.724H104.443V336.3C104.443 336.86 104.543 337.284 104.743 337.572C104.951 337.852 105.251 337.992 105.643 337.992C105.891 337.992 106.131 337.94 106.363 337.836C106.603 337.732 106.819 337.58 107.011 337.38C107.211 337.172 107.371 336.924 107.491 336.636V332.724H108.811V337.512C108.811 337.664 108.839 337.772 108.895 337.836C108.951 337.9 109.043 337.936 109.171 337.944V339C109.035 339.024 108.923 339.04 108.835 339.048C108.747 339.056 108.663 339.06 108.583 339.06C108.343 339.06 108.143 338.996 107.983 338.868C107.823 338.732 107.731 338.56 107.707 338.352L107.683 337.728C107.403 338.184 107.039 338.532 106.591 338.772C106.143 339.004 105.651 339.12 105.115 339.12C104.459 339.12 103.963 338.904 103.627 338.472C103.291 338.04 103.123 337.404 103.123 336.564ZM113.315 339.12C112.819 339.12 112.375 339.036 111.983 338.868C111.591 338.692 111.251 338.452 110.963 338.148C110.683 337.844 110.467 337.5 110.315 337.116C110.163 336.724 110.087 336.308 110.087 335.868C110.087 335.428 110.163 335.012 110.315 334.62C110.467 334.228 110.683 333.884 110.963 333.588C111.251 333.284 111.591 333.048 111.983 332.88C112.383 332.704 112.827 332.616 113.315 332.616C113.803 332.616 114.243 332.704 114.635 332.88C115.035 333.048 115.375 333.284 115.655 333.588C115.943 333.884 116.163 334.228 116.315 334.62C116.467 335.012 116.543 335.428 116.543 335.868C116.543 336.308 116.467 336.724 116.315 337.116C116.163 337.5 115.943 337.844 115.655 338.148C115.375 338.452 115.035 338.692 114.635 338.868C114.243 339.036 113.803 339.12 113.315 339.12ZM111.443 335.88C111.443 336.28 111.527 336.64 111.695 336.96C111.863 337.28 112.087 337.532 112.367 337.716C112.647 337.9 112.963 337.992 113.315 337.992C113.659 337.992 113.971 337.9 114.251 337.716C114.539 337.524 114.767 337.268 114.935 336.948C115.103 336.62 115.187 336.26 115.187 335.868C115.187 335.468 115.103 335.108 114.935 334.788C114.767 334.468 114.539 334.216 114.251 334.032C113.971 333.84 113.659 333.744 113.315 333.744C112.963 333.744 112.647 333.84 112.367 334.032C112.087 334.224 111.863 334.48 111.695 334.8C111.527 335.112 111.443 335.472 111.443 335.88ZM121.112 338.676C121 338.732 120.86 338.792 120.692 338.856C120.524 338.92 120.332 338.976 120.116 339.024C119.908 339.072 119.692 339.096 119.468 339.096C119.196 339.096 118.944 339.048 118.712 338.952C118.48 338.856 118.292 338.704 118.148 338.496C118.012 338.28 117.944 338.004 117.944 337.668V333.744H117.116V332.724H117.944V330.66H119.264V332.724H120.632V333.744H119.264V337.248C119.28 337.464 119.348 337.624 119.468 337.728C119.596 337.832 119.752 337.884 119.936 337.884C120.12 337.884 120.296 337.852 120.464 337.788C120.632 337.724 120.756 337.672 120.836 337.632L121.112 338.676ZM121.57 337.164C121.57 336.764 121.682 336.416 121.906 336.12C122.138 335.816 122.454 335.584 122.854 335.424C123.254 335.256 123.718 335.172 124.246 335.172C124.526 335.172 124.81 335.192 125.098 335.232C125.394 335.272 125.654 335.336 125.878 335.424V335.028C125.878 334.588 125.746 334.244 125.482 333.996C125.218 333.748 124.838 333.624 124.342 333.624C123.99 333.624 123.658 333.688 123.346 333.816C123.034 333.936 122.702 334.108 122.35 334.332L121.906 333.444C122.322 333.164 122.738 332.956 123.154 332.82C123.578 332.684 124.022 332.616 124.486 332.616C125.326 332.616 125.986 332.84 126.466 333.288C126.954 333.728 127.198 334.356 127.198 335.172V337.512C127.198 337.664 127.222 337.772 127.27 337.836C127.326 337.9 127.418 337.936 127.546 337.944V339C127.426 339.024 127.318 339.04 127.222 339.048C127.126 339.056 127.046 339.06 126.982 339.06C126.702 339.06 126.49 338.992 126.346 338.856C126.202 338.72 126.118 338.56 126.094 338.376L126.058 338.016C125.786 338.368 125.438 338.64 125.014 338.832C124.59 339.024 124.162 339.12 123.73 339.12C123.314 339.12 122.942 339.036 122.614 338.868C122.286 338.692 122.03 338.456 121.846 338.16C121.662 337.864 121.57 337.532 121.57 337.164ZM125.566 337.548C125.662 337.444 125.738 337.34 125.794 337.236C125.85 337.132 125.878 337.04 125.878 336.96V336.24C125.654 336.152 125.418 336.088 125.17 336.048C124.922 336 124.678 335.976 124.438 335.976C123.958 335.976 123.566 336.072 123.262 336.264C122.966 336.456 122.818 336.72 122.818 337.056C122.818 337.24 122.866 337.416 122.962 337.584C123.066 337.752 123.21 337.888 123.394 337.992C123.586 338.096 123.822 338.148 124.102 338.148C124.39 338.148 124.666 338.092 124.93 337.98C125.194 337.868 125.406 337.724 125.566 337.548Z" fill="black"/>
<rect x="20" y="16" width="285" height="241" fill="#C4C4C4"/>
<path fill-rule="evenodd" clip-rule="evenodd" d="M265.251 40.2803C265.28 37.4284 267.545 35 270.457 35C272.245 35 273.56 35.8847 274.399 36.7178C274.632 36.9497 274.833 37.1811 275 37.3944C275.168 37.1811 275.369 36.9497 275.602 36.7178C276.441 35.8847 277.756 35 279.544 35C282.456 35 284.721 37.4284 284.75 40.2803L284.75 40.2805C284.806 45.8427 280.337 49.6908 275.844 52.7403C275.595 52.9095 275.301 53.0001 275 53.0001C274.7 53.0001 274.406 52.9095 274.157 52.7403C269.664 49.6908 265.195 45.8427 265.251 40.2804L265.251 40.2803ZM279.544 36.5C278.288 36.5 277.331 37.1153 276.659 37.7822C276.325 38.1141 276.073 38.4479 275.906 38.6983C275.822 38.8229 275.761 38.9251 275.722 38.9937C275.702 39.028 275.688 39.0537 275.68 39.0695C275.675 39.0774 275.673 39.0828 275.671 39.0855C275.671 39.0863 275.671 39.0869 275.67 39.0873C275.543 39.3403 275.284 39.5 275 39.5C274.717 39.5 274.458 39.3403 274.331 39.0873C274.33 39.087 274.33 39.0864 274.33 39.0855C274.329 39.0837 274.327 39.0808 274.325 39.0768C274.324 39.0747 274.323 39.0722 274.321 39.0695C274.313 39.0537 274.299 39.028 274.279 38.9937C274.24 38.9251 274.179 38.8229 274.095 38.6983C273.928 38.4479 273.676 38.1141 273.342 37.7822C272.67 37.1153 271.713 36.5 270.457 36.5C268.423 36.5 266.772 38.2097 266.75 40.2955M279.544 36.5C281.578 36.5 283.229 38.2096 283.251 40.2954C283.297 44.9826 279.533 48.4235 275.001 51.4996L275 51.5001L275 51.4996C270.468 48.4235 266.703 44.9827 266.75 40.2957" fill="white"/>
<path d="M48.46 395.822V398H41.152V395.822H43.708V390.368C43.6 390.512 43.432 390.662 43.204 390.818C42.976 390.962 42.718 391.1 42.43 391.232C42.142 391.364 41.854 391.472 41.566 391.556C41.278 391.64 41.02 391.682 40.792 391.682V389.432C41.008 389.432 41.266 389.366 41.566 389.234C41.878 389.09 42.184 388.922 42.484 388.73C42.796 388.538 43.06 388.352 43.276 388.172C43.504 387.98 43.648 387.83 43.708 387.722H46.174V395.822H48.46ZM59.0645 392.726C59.0645 393.782 58.8605 394.724 58.4525 395.552C58.0565 396.368 57.5045 397.01 56.7965 397.478C56.1005 397.946 55.3085 398.18 54.4205 398.18C53.5325 398.18 52.7345 397.946 52.0265 397.478C51.3305 397.01 50.7785 396.368 50.3705 395.552C49.9745 394.724 49.7765 393.782 49.7765 392.726C49.7765 391.67 49.9745 390.734 50.3705 389.918C50.7785 389.09 51.3305 388.442 52.0265 387.974C52.7345 387.494 53.5325 387.254 54.4205 387.254C55.3085 387.254 56.1005 387.494 56.7965 387.974C57.5045 388.442 58.0565 389.09 58.4525 389.918C58.8605 390.734 59.0645 391.67 59.0645 392.726ZM56.6345 392.726C56.6345 392.078 56.5385 391.514 56.3465 391.034C56.1665 390.542 55.9085 390.158 55.5725 389.882C55.2365 389.606 54.8525 389.468 54.4205 389.468C53.9765 389.468 53.5865 389.606 53.2505 389.882C52.9145 390.158 52.6505 390.542 52.4585 391.034C52.2785 391.514 52.1885 392.078 52.1885 392.726C52.1885 393.374 52.2785 393.938 52.4585 394.418C52.6505 394.898 52.9145 395.276 53.2505 395.552C53.5865 395.828 53.9765 395.966 54.4205 395.966C54.8525 395.966 55.2305 395.828 55.5545 395.552C55.8905 395.276 56.1545 394.898 56.3465 394.418C56.5385 393.926 56.6345 393.362 56.6345 392.726ZM63.5512 390.494C62.9992 390.494 62.5012 390.374 62.0572 390.134C61.6132 389.882 61.2532 389.552 60.9772 389.144C60.7132 388.724 60.5812 388.262 60.5812 387.758C60.5812 387.254 60.7132 386.798 60.9772 386.39C61.2532 385.97 61.6132 385.64 62.0572 385.4C62.5012 385.16 62.9992 385.04 63.5512 385.04C64.1032 385.04 64.6012 385.16 65.0452 385.4C65.5012 385.64 65.8612 385.97 66.1252 386.39C66.3892 386.798 66.5212 387.254 66.5212 387.758C66.5212 388.262 66.3892 388.724 66.1252 389.144C65.8612 389.552 65.5012 389.882 65.0452 390.134C64.6012 390.374 64.1032 390.494 63.5512 390.494ZM63.5512 389.288C63.7912 389.288 64.0072 389.216 64.1992 389.072C64.3912 388.928 64.5412 388.742 64.6492 388.514C64.7692 388.286 64.8292 388.04 64.8292 387.776C64.8292 387.488 64.7692 387.23 64.6492 387.002C64.5292 386.774 64.3732 386.594 64.1812 386.462C63.9892 386.318 63.7792 386.246 63.5512 386.246C63.3112 386.246 63.0952 386.318 62.9032 386.462C62.7112 386.594 62.5552 386.774 62.4352 387.002C62.3272 387.23 62.2732 387.482 62.2732 387.758C62.2732 388.034 62.3332 388.292 62.4532 388.532C62.5732 388.76 62.7292 388.946 62.9212 389.09C63.1132 389.222 63.3232 389.288 63.5512 389.288ZM70.4992 398.18C69.9472 398.18 69.4492 398.06 69.0052 397.82C68.5612 397.58 68.2012 397.256 67.9252 396.848C67.6612 396.428 67.5292 395.966 67.5292 395.462C67.5292 394.946 67.6612 394.484 67.9252 394.076C68.2012 393.668 68.5612 393.344 69.0052 393.104C69.4492 392.852 69.9472 392.726 70.4992 392.726C71.0512 392.726 71.5492 392.852 71.9932 393.104C72.4492 393.344 72.8092 393.668 73.0732 394.076C73.3372 394.484 73.4692 394.94 73.4692 395.444C73.4692 395.948 73.3372 396.41 73.0732 396.83C72.8092 397.238 72.4492 397.568 71.9932 397.82C71.5492 398.06 71.0512 398.18 70.4992 398.18ZM70.4992 396.974C70.7392 396.974 70.9552 396.902 71.1472 396.758C71.3392 396.614 71.4892 396.428 71.5972 396.2C71.7172 395.972 71.7772 395.726 71.7772 395.462C71.7772 395.174 71.7172 394.916 71.5972 394.688C71.4892 394.46 71.3332 394.28 71.1292 394.148C70.9372 394.004 70.7272 393.932 70.4992 393.932C70.2712 393.932 70.0552 394.004 69.8512 394.148C69.6592 394.28 69.5032 394.466 69.3832 394.706C69.2752 394.934 69.2212 395.18 69.2212 395.444C69.2212 395.732 69.2812 395.99 69.4012 396.218C69.5212 396.446 69.6772 396.632 69.8692 396.776C70.0612 396.908 70.2712 396.974 70.4992 396.974ZM61.6072 397.154L66.6652 391.232L71.3452 385.076L72.4432 386.048L67.5112 391.88L62.6872 398.126L61.6072 397.154Z" fill="#C8102E"/>
<rect width="109" height="46" transform="translate(177 368)" fill="#0B3279"/>
<path d="M220.764 386.48L223.068 393.032L225.348 386.48H227.088L223.86 395H222.264L219.024 386.48H220.764ZM234.513 393.548V395H228.597V386.48H234.405V387.932H230.253V389.984H233.841V391.328H230.253V393.548H234.513ZM236.404 395V386.48H240.172C240.564 386.48 240.924 386.56 241.252 386.72C241.588 386.88 241.876 387.096 242.116 387.368C242.364 387.64 242.552 387.944 242.68 388.28C242.816 388.616 242.884 388.96 242.884 389.312C242.884 389.672 242.82 390.02 242.692 390.356C242.572 390.684 242.396 390.972 242.164 391.22C241.932 391.468 241.66 391.66 241.348 391.796L243.292 395H241.468L239.716 392.144H238.06V395H236.404ZM238.06 390.692H240.136C240.344 390.692 240.528 390.632 240.688 390.512C240.848 390.384 240.976 390.216 241.072 390.008C241.168 389.8 241.216 389.568 241.216 389.312C241.216 389.04 241.16 388.804 241.048 388.604C240.936 388.396 240.792 388.232 240.616 388.112C240.448 387.992 240.264 387.932 240.064 387.932H238.06V390.692Z" fill="white"/>
</g>
<defs>
<filter id="filter0_d_540_587" x="0" y="0" width="325" height="457" filterUnits="userSpaceOnUse" color-interpolation-filters="sRGB">
<feFlood flood-opacity="0" result="BackgroundImageFix"/>
<feColorMatrix in="SourceAlpha" type="matrix" values="0 0 0 0 0 0 0 0 0 0 0 0 0 0 0 0 0 0 127 0" result="hardAlpha"/>
<feOffset dy="4"/>
<feGaussianBlur stdDeviation="10"/>
<feComposite in2="hardAlpha" operator="out"/>
<feColorMatrix type="matrix" values="0 0 0 0 0 0 0 0 0 0 0 0 0 0 0 0 0 0 0.06 0"/>
<feBlend mode="normal" in2="BackgroundImageFix" result="effect1_dropShadow_540_587"/>
<feBlend mode="normal" in="SourceGraphic" in2="effect1_dropShadow_540_587" result="shape"/>
</filter>
</defs>
</svg>
