<svg width="20" height="20" viewBox="0 0 20 20" fill="none" xmlns="http://www.w3.org/2000/svg">
<g opacity="0.6">
<path d="M13.6685 12.1755C13.4926 12.0881 12.3498 11.5638 12.174 11.4764C11.9981 11.389 11.8223 11.389 11.6465 11.5638C11.4707 11.7385 11.119 12.2629 10.9432 12.4377C10.8553 12.6124 10.6795 12.6124 10.5036 12.5251C9.88826 12.2629 9.27287 11.9133 8.7454 11.4764C8.30584 11.0394 7.86628 10.5151 7.51464 9.99072C7.42672 9.81594 7.51463 9.64116 7.60255 9.55376C7.69046 9.46637 7.77837 9.29159 7.95419 9.2042C8.04211 9.11681 8.13002 8.94203 8.13002 8.85464C8.21793 8.76725 8.21793 8.59247 8.13002 8.50508C8.04211 8.41769 7.60255 7.369 7.42672 6.93204C7.33881 6.32031 7.16299 6.32031 6.98716 6.32031H6.5476C6.37178 6.32031 6.10804 6.49509 6.02013 6.58248C5.49266 7.10682 5.22892 7.71856 5.22892 8.41768C5.31684 9.2042 5.58057 9.99072 6.10804 10.6898C7.07507 12.0881 8.30584 13.2242 9.80034 13.9233C10.2399 14.0981 10.5916 14.2729 11.0311 14.3603C11.4707 14.535 11.9102 14.535 12.4377 14.4476C13.0531 14.3603 13.5806 13.9233 13.9322 13.399C14.108 13.0494 14.108 12.6998 14.0201 12.3503L13.6685 12.1755ZM15.8663 4.22293C12.4377 0.814688 6.89925 0.814688 3.47069 4.22293C0.657504 7.01943 0.130033 11.3016 2.0641 14.7098L0.833328 19.1668L5.49266 17.9433C6.81134 18.6424 8.21793 18.992 9.62452 18.992C14.4597 18.992 18.3278 15.1468 18.3278 10.3403C18.4157 8.06812 17.4487 5.88335 15.8663 4.22293ZM13.4926 16.4576C12.3498 17.1568 11.0311 17.5937 9.62452 17.5937C8.30584 17.5937 7.07508 17.2442 5.93222 16.6324L5.66848 16.4576L2.94321 17.1568L3.64651 14.535L3.47069 14.2729C1.3608 10.7772 2.41574 6.4077 5.84431 4.22293C9.27287 2.03816 13.6685 3.17424 15.7784 6.49509C17.8882 9.90333 16.9212 14.3603 13.4926 16.4576Z" fill="black"/>
</g>
</svg>
