<svg width="21" height="20" viewBox="0 0 21 20" fill="none" xmlns="http://www.w3.org/2000/svg">
<g opacity="0.6">
<path d="M18.7481 5.38929C18.6447 5.02049 18.4433 4.6866 18.1653 4.42311C17.8795 4.15152 17.5292 3.95725 17.1474 3.85862C15.7187 3.48204 9.99468 3.48204 9.99468 3.48204C7.6084 3.45489 5.22271 3.57431 2.85108 3.8396C2.46931 3.94551 2.11965 4.14413 1.83317 4.41779C1.55168 4.68862 1.3478 5.0226 1.24129 5.38853C0.98544 6.76684 0.86113 8.16635 0.870037 9.56818C0.860908 10.9688 0.984913 12.3678 1.24129 13.7478C1.34552 14.1122 1.54864 14.4447 1.83089 14.7133C2.11313 14.9818 2.46461 15.1758 2.85108 15.2785C4.29882 15.6543 9.99468 15.6543 9.99468 15.6543C12.384 15.6815 14.7727 15.5621 17.1474 15.2968C17.5292 15.1981 17.8795 15.0039 18.1653 14.7323C18.4468 14.4637 18.6469 14.1297 18.7473 13.7661C19.0098 12.3883 19.1375 10.9882 19.1285 9.58568C19.1482 8.1772 19.0207 6.77051 18.7481 5.38853V5.38929ZM8.17492 12.173V6.96408L12.9373 9.56894L8.17492 12.173Z" fill="black"/>
</g>
</svg>
